<?xml version="1.0" encoding="UTF-8" standalone="no"?>
<svg
   height="484.35751"
   overflow="scroll"
   width="1228.6825"
   version="1.1"
   id="svg5"
   sodipodi:docname="logo.svg"
   inkscape:version="1.3 (0e150ed, 2023-07-21)"
   xmlns:inkscape="http://www.inkscape.org/namespaces/inkscape"
   xmlns:sodipodi="http://sodipodi.sourceforge.net/DTD/sodipodi-0.dtd"
   xmlns="http://www.w3.org/2000/svg"
   xmlns:svg="http://www.w3.org/2000/svg">
  <sodipodi:namedview
     id="namedview5"
     pagecolor="#ffffff"
     bordercolor="#000000"
     borderopacity="0.25"
     inkscape:showpageshadow="2"
     inkscape:pageopacity="0.0"
     inkscape:pagecheckerboard="0"
     inkscape:deskcolor="#d1d1d1"
     inkscape:zoom="0.44293548"
     inkscape:cx="589.25061"
     inkscape:cy="171.58255"
     inkscape:window-width="1512"
     inkscape:window-height="827"
     inkscape:window-x="0"
     inkscape:window-y="38"
     inkscape:window-maximized="0"
     inkscape:current-layer="svg5" />
  <defs
     id="defs5">
    <inkscape:path-effect
       effect="fillet_chamfer"
       id="path-effect2"
       is_visible="true"
       lpeversion="1"
       nodesatellites_param="F,0,0,1,0,30.017027,0,1 @ F,0,0,1,0,25.002016,0,1 @ F,0,0,1,0,25.225461,0,1 @ F,0,0,1,0,32.90984,0,1"
       radius="0"
       unit="px"
       method="auto"
       mode="F"
       chamfer_steps="1"
       flexible="false"
       use_knot_distance="true"
       apply_no_radius="true"
       apply_with_radius="true"
       only_selected="false"
       hide_knots="false" />
    <inkscape:path-effect
       effect="fillet_chamfer"
       id="path-effect1"
       is_visible="true"
       lpeversion="1"
       nodesatellites_param="F,0,0,1,0,0,0,1 @ F,0,0,1,0,0,0,1 @ F,0,0,1,0,0,0,1 @ F,0,0,1,0,0,0,1"
       radius="0"
       unit="px"
       method="auto"
       mode="F"
       chamfer_steps="1"
       flexible="false"
       use_knot_distance="true"
       apply_no_radius="true"
       apply_with_radius="true"
       only_selected="false"
       hide_knots="false" />
    <mask
       id="mask-2"
       fill="#ffffff">
      <path
         d="M 29.375,0 H 4.40625 C 1.9828125,0 0,1.9943182 0,4.4318182 V 60.568182 C 0,63.005682 1.9828125,65 4.40625,65 h 38.1875 C 45.017187,65 47,63.005682 47,60.568182 V 17.727273 Z"
         id="use4" />
    </mask>
    <linearGradient
       x1="0.50005394"
       y1="0.085861064"
       x2="0.50005394"
       y2="1.0001394"
       id="linearGradient-5"
       gradientUnits="userSpaceOnUse">
      <stop
         stop-color="#1A237E"
         stop-opacity="0.2"
         offset="0%"
         id="stop1" />
      <stop
         stop-color="#1A237E"
         stop-opacity="0.02"
         offset="100%"
         id="stop2" />
    </linearGradient>
    <mask
       id="mask-4"
       fill="#ffffff">
      <path
         d="M 29.375,0 H 4.40625 C 1.9828125,0 0,1.9943182 0,4.4318182 V 60.568182 C 0,63.005682 1.9828125,65 4.40625,65 h 38.1875 C 45.017187,65 47,63.005682 47,60.568182 V 17.727273 Z"
         id="use5" />
    </mask>
    <mask
       id="mask-7"
       fill="#ffffff">
      <path
         d="M 29.375,0 H 4.40625 C 1.9828125,0 0,1.9943182 0,4.4318182 V 60.568182 C 0,63.005682 1.9828125,65 4.40625,65 h 38.1875 C 45.017187,65 47,63.005682 47,60.568182 V 17.727273 Z"
         id="use6" />
    </mask>
    <mask
       id="mask-9"
       fill="#ffffff">
      <path
         d="M 29.375,0 H 4.40625 C 1.9828125,0 0,1.9943182 0,4.4318182 V 60.568182 C 0,63.005682 1.9828125,65 4.40625,65 h 38.1875 C 45.017187,65 47,63.005682 47,60.568182 V 17.727273 Z"
         id="use8" />
    </mask>
    <mask
       id="mask-11"
       fill="#ffffff">
      <path
         d="M 29.375,0 H 4.40625 C 1.9828125,0 0,1.9943182 0,4.4318182 V 60.568182 C 0,63.005682 1.9828125,65 4.40625,65 h 38.1875 C 45.017187,65 47,63.005682 47,60.568182 V 17.727273 Z"
         id="use11" />
    </mask>
    <mask
       id="mask-13"
       fill="#ffffff">
      <path
         d="M 29.375,0 H 4.40625 C 1.9828125,0 0,1.9943182 0,4.4318182 V 60.568182 C 0,63.005682 1.9828125,65 4.40625,65 h 38.1875 C 45.017187,65 47,63.005682 47,60.568182 V 17.727273 Z"
         id="use13" />
    </mask>
    <mask
       id="mask-15"
       fill="#ffffff">
      <path
         d="M 29.375,0 H 4.40625 C 1.9828125,0 0,1.9943182 0,4.4318182 V 60.568182 C 0,63.005682 1.9828125,65 4.40625,65 h 38.1875 C 45.017187,65 47,63.005682 47,60.568182 V 17.727273 Z"
         id="use15" />
    </mask>
    <radialGradient
       cx="1.7510446"
       cy="1.5019867"
       fx="1.7510446"
       fy="1.5019867"
       r="89.125366"
       gradientTransform="scale(0.8503393,1.1760012)"
       id="radialGradient-16"
       gradientUnits="userSpaceOnUse">
      <stop
         stop-color="#FFFFFF"
         stop-opacity="0.1"
         offset="0%"
         id="stop3" />
      <stop
         stop-color="#FFFFFF"
         stop-opacity="0"
         offset="100%"
         id="stop4" />
    </radialGradient>
  </defs>
  <path
     style="fill:#ffffff;stroke:#000000;stroke-width:1.925;stroke-linecap:round;stroke-linejoin:bevel;stroke-dasharray:none;stroke-dashoffset:0;stroke-opacity:1"
     id="rect1"
     width="1226.7574"
     height="482.43253"
     x="0.96231502"
     y="0.96231502"
     sodipodi:type="rect"
     d="M 30.979342,0.96231502 H 1202.7177 A 25.002016,25.002016 45 0 1 1227.7198,25.964331 V 458.16938 a 25.225461,25.225461 135 0 1 -25.2255,25.22546 H 33.872155 A 32.90984,32.90984 45 0 1 0.96231502,450.485 V 30.979342 A 30.017027,30.017027 135 0 1 30.979342,0.96231502 Z"
     inkscape:path-effect="#path-effect2"
     transform="translate(1.8495321e-4,1.8495321e-4)" />
  <path
     d="M 313.12952,54.646584 H 39.079527 c 0,0 -8.1,100.799986 -8.1,100.799986 h 10.8 c 6.3,-72.449986 13.05,-87.299986 80.999993,-87.299986 8.1,0 19.8,0 24.3,0.9 9.45,1.8 9.45,6.75 9.45,17.1 V 322.39657 c 0,15.3 0,21.6 -47.25,21.6 H 91.279527 v 13.95 c 18.449993,-1.35 63.899993,-1.35 84.599993,-1.35 20.7,0 67.05,0 85.5,1.35 v -13.95 h -18 c -47.25,0 -47.25,-6.3 -47.25,-21.6 V 86.146584 c 0,-9 0,-15.3 8.1,-17.1 4.95,-0.9 17.1,-0.9 25.65,-0.9 67.5,0 74.25,14.85 80.55,87.299986 h 11.25 z"
     id="path3"
     style="stroke-width:45" />
  <path
     d="m 554.32952,343.54658 h -11.25 c -11.25,68.85 -21.6,101.7 -98.55,101.7 h -59.4 c -21.15,0 -22.05,-3.15 -22.05,-18 v -119.7 h 40.05 c 43.65,0 48.6,14.4 48.6,52.65 h 11.25 v -118.8 h -11.25 c 0,38.25 -4.95,52.2 -48.6,52.2 h -40.05 v -107.55 c 0,-14.85 0.9,-18 22.05,-18 h 57.6 c 68.85,0 80.55,24.75 87.75,87.3 h 11.25 l -12.6,-100.8 h -252 v 13.5 h 10.35 c 34.65,0 35.55,4.95 35.55,21.15 v 234.9 c 0,16.2 -0.9,21.15 -35.55,21.15 h -10.35 v 13.95 h 258.3 z"
     id="path4"
     style="stroke-width:45" />
  <g
     transform="matrix(0.25168466,0,0,-0.25168466,567.76771,383.10504)"
     id="g8">
    <path
       d="m 967,288 h 36 C 1003,182.66667 986,106 952,58 918,10 875,-14 823,-14 781,-14 740.66667,1.6666667 702,33 663.33333,64.333333 628.66667,149.33333 598,288 L 512,676 214,0 H 25 l 428,922 c -22.66667,119.3333 -50,207.6667 -82,265 -32,57.3333 -71.66667,86 -119,86 -38,0 -71,-14.3333 -99,-43 -28,-28.6667 -44,-73.6667 -48,-135 H 69 c 2,98 21.666667,176.3333 59,235 37.33333,58.6667 84,88.3333 140,89 36,0 70,-14.6667 102,-44 32,-29.3333 60,-80 84,-152 24,-72 61,-220.6667 111,-446 l 71,-317 c 28.66667,-131.33333 58.66667,-219 90,-263 31.33333,-44 69.33333,-66.33333 114,-67 74.66667,0 117,52.66667 127,158 z"
       id="path10"
       style="fill:#000000" />
  </g>
  <path
     d="m 1202.4945,148.61696 c 0,-1.04832 -0.524,-1.57248 -1.0482,-2.62079 0,0 0,-0.52415 -0.5242,-0.52415 -0.5241,-0.52415 -1.0482,-1.57247 -1.5725,-2.09662 L 1083.5112,28.061139 c -0.5242,-0.524156 -1.0483,-1.048311 -2.0966,-1.572467 0,0 -0.5242,0 -0.5242,-0.524156 -0.5241,0.524156 -1.0482,0 -2.0966,0 H 910.53984 c -15.20051,0 -27.78025,12.57974 -27.78025,27.780256 V 430.61274 c 0,15.20052 12.57974,27.78026 27.78025,27.78026 h 264.17446 c 15.2005,0 27.7802,-12.57974 27.7802,-27.78026 z m -33.0218,-7.86234 h -82.8165 V 58.462175 Z m 13.6281,289.85812 c 0,4.71741 -3.6691,8.3865 -8.3865,8.3865 H 910.53984 c -4.71739,0 -8.38649,-3.66909 -8.38649,-8.3865 V 53.744772 c 0,-4.717402 3.6691,-8.386491 8.38649,-8.386491 H 1067.2624 V 150.71358 c 0,5.24156 4.1933,9.4348 9.4348,9.4348 h 105.8794 v 270.46436 z m -44.5532,-101.16205 c 0,5.24155 -4.1933,9.4348 -9.4348,9.4348 H 954.56892 c -5.24154,0 -9.43479,-4.19325 -9.43479,-9.4348 0,-5.24156 4.19325,-9.43481 9.43479,-9.43481 h 174.54388 c 5.2415,-0.52415 9.4348,4.19325 9.4348,9.43481 z m 0,58.18129 c 0,5.24155 -4.1933,9.4348 -9.4348,9.4348 H 954.56892 c -5.24154,0 -9.43479,-4.19325 -9.43479,-9.4348 0,-5.24156 4.19325,-9.43481 9.43479,-9.43481 h 174.54388 c 5.2415,-0.52415 9.4348,3.6691 9.4348,9.43481 z m 0,-115.83842 c 0,5.24155 -4.1933,9.4348 -9.4348,9.4348 H 954.56892 c -5.24154,0 -9.43479,-4.19325 -9.43479,-9.4348 0,-5.24157 4.19325,-9.43481 9.43479,-9.43481 h 174.54388 c 5.2415,0 9.4348,4.19324 9.4348,9.43481 z M 954.56892,204.70161 h 174.54388 c 5.2415,0 9.4348,4.19325 9.4348,9.43482 0,5.24155 -4.1933,9.43479 -9.4348,9.43479 H 954.56892 c -5.24154,0 -9.43479,-4.19324 -9.43479,-9.43479 -0.52416,-4.71741 3.66908,-9.43482 9.43479,-9.43482 z"
     id="path1"
     style="stroke-width:5.24156"
     sodipodi:nodetypes="sccccccsssssssscccccssssscsscccssssscsssssscssssssssssssscs" />
</svg>
