<?xml version="1.0" encoding="UTF-8" standalone="no"?>
<svg
   height="433.23209"
   overflow="scroll"
   width="1171.515"
   version="1.1"
   id="svg5"
   sodipodi:docname="logo-dark-mode.svg"
   inkscape:version="1.3 (0e150ed, 2023-07-21)"
   xml:space="preserve"
   xmlns:inkscape="http://www.inkscape.org/namespaces/inkscape"
   xmlns:sodipodi="http://sodipodi.sourceforge.net/DTD/sodipodi-0.dtd"
   xmlns="http://www.w3.org/2000/svg"
   xmlns:svg="http://www.w3.org/2000/svg"><sodipodi:namedview
     id="namedview5"
     pagecolor="#000000"
     bordercolor="#000000"
     borderopacity="0.25"
     inkscape:showpageshadow="2"
     inkscape:pageopacity="0.0"
     inkscape:pagecheckerboard="0"
     inkscape:deskcolor="#d1d1d1"
     inkscape:zoom="0.32035594"
     inkscape:cx="785.06427"
     inkscape:cy="-15.60764"
     inkscape:window-width="1512"
     inkscape:window-height="827"
     inkscape:window-x="0"
     inkscape:window-y="38"
     inkscape:window-maximized="0"
     inkscape:current-layer="svg5" /><defs
     id="defs5" /><path
     d="M 282.15,28.682073 H 8.1 c 0,0 -8.1,100.799987 -8.1,100.799987 h 10.8 c 6.3,-72.449987 13.05,-87.299987 81,-87.299987 8.1,0 19.8,0 24.3,0.9 9.45,1.8 9.45,6.75 9.45,17.1 V 296.43206 c 0,15.3 0,21.6 -47.25,21.6 h -18 v 13.95 c 18.45,-1.35 63.9,-1.35 84.6,-1.35 20.7,0 67.05,0 85.5,1.35 v -13.95 h -18 c -47.25,0 -47.25,-6.3 -47.25,-21.6 V 60.182073 c 0,-9 0,-15.3 8.1,-17.1 4.95,-0.9 17.1,-0.9 25.65,-0.9 67.5,0 74.25,14.85 80.55,87.299987 h 11.25 z"
     id="path3"
     style="fill:#ffffff;stroke-width:45" /><path
     d="M 523.35,317.58207 H 512.1 c -11.25,68.85 -21.6,101.7 -98.55,101.7 h -59.4 c -21.15,0 -22.05,-3.15 -22.05,-18 v -119.7 h 40.05 c 43.65,0 48.6,14.4 48.6,52.65 H 432 v -118.8 h -11.25 c 0,38.25 -4.95,52.2 -48.6,52.2 H 332.1 v -107.55 c 0,-14.85 0.9,-18 22.05,-18 h 57.6 c 68.85,0 80.55,24.75 87.75,87.3 h 11.25 l -12.6,-100.8 h -252 v 13.5 h 10.35 c 34.65,0 35.55,4.95 35.55,21.15 v 234.9 c 0,16.2 -0.9,21.15 -35.55,21.15 h -10.35 v 13.95 h 258.3 z"
     id="path4"
     style="fill:#ffffff;stroke-width:45" /><g
     transform="matrix(0.25168466,0,0,-0.25168466,536.78819,357.14053)"
     id="g8"
     style="fill:#ffffff"><path
       d="m 967,288 h 36 C 1003,182.66667 986,106 952,58 918,10 875,-14 823,-14 781,-14 740.66667,1.6666667 702,33 663.33333,64.333333 628.66667,149.33333 598,288 L 512,676 214,0 H 25 l 428,922 c -22.66667,119.3333 -50,207.6667 -82,265 -32,57.3333 -71.66667,86 -119,86 -38,0 -71,-14.3333 -99,-43 -28,-28.6667 -44,-73.6667 -48,-135 H 69 c 2,98 21.666667,176.3333 59,235 37.33333,58.6667 84,88.3333 140,89 36,0 70,-14.6667 102,-44 32,-29.3333 60,-80 84,-152 24,-72 61,-220.6667 111,-446 l 71,-317 c 28.66667,-131.33333 58.66667,-219 90,-263 31.33333,-44 69.33333,-66.33333 114,-67 74.66667,0 117,52.66667 127,158 z"
       id="path10"
       style="fill:#ffffff" /></g><path
     d="m 1171.515,122.65245 c 0,-1.04832 -0.524,-1.57248 -1.0482,-2.62079 0,0 0,-0.52415 -0.5242,-0.52415 -0.5241,-0.52415 -1.0482,-1.57247 -1.5725,-2.09662 L 1052.5317,2.0966325 c -0.5242,-0.52416 -1.0483,-1.04832 -2.0966,-1.57246996 0,0 -0.5242,0 -0.5242,-0.52416 -0.5241,0.52416 -1.0482,0 -2.0966,0 H 879.56032 c -15.20051,0 -27.78025,12.57974046 -27.78025,27.78026046 V 404.64823 c 0,15.20052 12.57974,27.78026 27.78025,27.78026 h 264.17448 c 15.2005,0 27.7802,-12.57974 27.7802,-27.78026 z m -33.0218,-7.86234 h -82.8165 V 32.497663 Z m 13.6281,289.85812 c 0,4.71741 -3.6691,8.3865 -8.3865,8.3865 H 879.56032 c -4.71739,0 -8.38649,-3.66909 -8.38649,-8.3865 V 27.780263 c 0,-4.7174 3.6691,-8.38649 8.38649,-8.38649 H 1036.2829 V 124.74907 c 0,5.24156 4.1933,9.4348 9.4348,9.4348 h 105.8794 v 270.46436 z m -44.5532,-101.16205 c 0,5.24155 -4.1933,9.4348 -9.4348,9.4348 H 923.5894 c -5.24154,0 -9.43479,-4.19325 -9.43479,-9.4348 0,-5.24156 4.19325,-9.43481 9.43479,-9.43481 h 174.5439 c 5.2415,-0.52415 9.4348,4.19325 9.4348,9.43481 z m 0,58.18129 c 0,5.24155 -4.1933,9.4348 -9.4348,9.4348 H 923.5894 c -5.24154,0 -9.43479,-4.19325 -9.43479,-9.4348 0,-5.24156 4.19325,-9.43481 9.43479,-9.43481 h 174.5439 c 5.2415,-0.52415 9.4348,3.6691 9.4348,9.43481 z m 0,-115.83842 c 0,5.24155 -4.1933,9.4348 -9.4348,9.4348 H 923.5894 c -5.24154,0 -9.43479,-4.19325 -9.43479,-9.4348 0,-5.24157 4.19325,-9.43481 9.43479,-9.43481 h 174.5439 c 5.2415,0 9.4348,4.19324 9.4348,9.43481 z M 923.5894,178.7371 h 174.5439 c 5.2415,0 9.4348,4.19325 9.4348,9.43482 0,5.24155 -4.1933,9.43479 -9.4348,9.43479 H 923.5894 c -5.24154,0 -9.43479,-4.19324 -9.43479,-9.43479 -0.52416,-4.71741 3.66908,-9.43482 9.43479,-9.43482 z"
     id="path1"
     style="fill:#ffffff;stroke-width:5.24156"
     sodipodi:nodetypes="sccccccsssssssscccccssssscsscccssssscsssssscssssssssssssscs" /></svg>
