<?xml version="1.0" encoding="UTF-8" standalone="no"?>
<svg
   height="630"
   overflow="scroll"
   width="1200"
   version="1.1"
   id="svg5"
   sodipodi:docname="social.svg"
   inkscape:version="1.3 (0e150ed, 2023-07-21)"
   inkscape:export-filename="social.png"
   inkscape:export-xdpi="96"
   inkscape:export-ydpi="96"
   xmlns:inkscape="http://www.inkscape.org/namespaces/inkscape"
   xmlns:sodipodi="http://sodipodi.sourceforge.net/DTD/sodipodi-0.dtd"
   xmlns="http://www.w3.org/2000/svg"
   xmlns:svg="http://www.w3.org/2000/svg">
  <sodipodi:namedview
     id="namedview5"
     pagecolor="#ffffff"
     bordercolor="#000000"
     borderopacity="0.25"
     inkscape:showpageshadow="2"
     inkscape:pageopacity="0.0"
     inkscape:pagecheckerboard="0"
     inkscape:deskcolor="#d1d1d1"
     inkscape:zoom="0.46886887"
     inkscape:cx="628.10739"
     inkscape:cy="375.37148"
     inkscape:window-width="1512"
     inkscape:window-height="827"
     inkscape:window-x="0"
     inkscape:window-y="38"
     inkscape:window-maximized="0"
     inkscape:current-layer="svg5" />
  <defs
     id="defs5">
    <inkscape:path-effect
       effect="fillet_chamfer"
       id="path-effect2"
       is_visible="true"
       lpeversion="1"
       nodesatellites_param="F,0,0,1,0,30.017027,0,1 @ F,0,0,1,0,25.002016,0,1 @ F,0,0,1,0,25.225461,0,1 @ F,0,0,1,0,32.90984,0,1"
       radius="0"
       unit="px"
       method="auto"
       mode="F"
       chamfer_steps="1"
       flexible="false"
       use_knot_distance="true"
       apply_no_radius="true"
       apply_with_radius="true"
       only_selected="false"
       hide_knots="false" />
    <inkscape:path-effect
       effect="fillet_chamfer"
       id="path-effect1"
       is_visible="true"
       lpeversion="1"
       nodesatellites_param="F,0,0,1,0,0,0,1 @ F,0,0,1,0,0,0,1 @ F,0,0,1,0,0,0,1 @ F,0,0,1,0,0,0,1"
       radius="0"
       unit="px"
       method="auto"
       mode="F"
       chamfer_steps="1"
       flexible="false"
       use_knot_distance="true"
       apply_no_radius="true"
       apply_with_radius="true"
       only_selected="false"
       hide_knots="false" />
    <mask
       id="mask-2"
       fill="#ffffff">
      <path
         d="M 29.375,0 H 4.40625 C 1.9828125,0 0,1.9943182 0,4.4318182 V 60.568182 C 0,63.005682 1.9828125,65 4.40625,65 h 38.1875 C 45.017187,65 47,63.005682 47,60.568182 V 17.727273 Z"
         id="use4" />
    </mask>
    <linearGradient
       x1="0.50005394"
       y1="0.085861064"
       x2="0.50005394"
       y2="1.0001394"
       id="linearGradient-5"
       gradientUnits="userSpaceOnUse">
      <stop
         stop-color="#1A237E"
         stop-opacity="0.2"
         offset="0%"
         id="stop1" />
      <stop
         stop-color="#1A237E"
         stop-opacity="0.02"
         offset="100%"
         id="stop2" />
    </linearGradient>
    <mask
       id="mask-4"
       fill="#ffffff">
      <path
         d="M 29.375,0 H 4.40625 C 1.9828125,0 0,1.9943182 0,4.4318182 V 60.568182 C 0,63.005682 1.9828125,65 4.40625,65 h 38.1875 C 45.017187,65 47,63.005682 47,60.568182 V 17.727273 Z"
         id="use5" />
    </mask>
    <mask
       id="mask-7"
       fill="#ffffff">
      <path
         d="M 29.375,0 H 4.40625 C 1.9828125,0 0,1.9943182 0,4.4318182 V 60.568182 C 0,63.005682 1.9828125,65 4.40625,65 h 38.1875 C 45.017187,65 47,63.005682 47,60.568182 V 17.727273 Z"
         id="use6" />
    </mask>
    <mask
       id="mask-9"
       fill="#ffffff">
      <path
         d="M 29.375,0 H 4.40625 C 1.9828125,0 0,1.9943182 0,4.4318182 V 60.568182 C 0,63.005682 1.9828125,65 4.40625,65 h 38.1875 C 45.017187,65 47,63.005682 47,60.568182 V 17.727273 Z"
         id="use8" />
    </mask>
    <mask
       id="mask-11"
       fill="#ffffff">
      <path
         d="M 29.375,0 H 4.40625 C 1.9828125,0 0,1.9943182 0,4.4318182 V 60.568182 C 0,63.005682 1.9828125,65 4.40625,65 h 38.1875 C 45.017187,65 47,63.005682 47,60.568182 V 17.727273 Z"
         id="use11" />
    </mask>
    <mask
       id="mask-13"
       fill="#ffffff">
      <path
         d="M 29.375,0 H 4.40625 C 1.9828125,0 0,1.9943182 0,4.4318182 V 60.568182 C 0,63.005682 1.9828125,65 4.40625,65 h 38.1875 C 45.017187,65 47,63.005682 47,60.568182 V 17.727273 Z"
         id="use13" />
    </mask>
    <mask
       id="mask-15"
       fill="#ffffff">
      <path
         d="M 29.375,0 H 4.40625 C 1.9828125,0 0,1.9943182 0,4.4318182 V 60.568182 C 0,63.005682 1.9828125,65 4.40625,65 h 38.1875 C 45.017187,65 47,63.005682 47,60.568182 V 17.727273 Z"
         id="use15" />
    </mask>
    <radialGradient
       cx="1.7510446"
       cy="1.5019867"
       fx="1.7510446"
       fy="1.5019867"
       r="89.125366"
       gradientTransform="scale(0.8503393,1.1760012)"
       id="radialGradient-16"
       gradientUnits="userSpaceOnUse">
      <stop
         stop-color="#FFFFFF"
         stop-opacity="0.1"
         offset="0%"
         id="stop3" />
      <stop
         stop-color="#FFFFFF"
         stop-opacity="0"
         offset="100%"
         id="stop4" />
    </radialGradient>
  </defs>
  <rect
     style="fill:#ffffff;stroke:none;stroke-width:1.8499;stroke-linecap:round;stroke-linejoin:bevel"
     id="rect1"
     width="1198.1501"
     height="628.15009"
     x="0.92495"
     y="0.92495" />
  <path
     d="M 331.16013,153.60425 H 92.187838 c 0,0 -7.06322,87.89785 -7.06322,87.89785 h 9.41762 c 5.493622,-63.17657 11.379642,-76.12582 70.632202,-76.12582 7.06322,0 17.26565,0 21.18967,0.7848 8.24042,1.56961 8.24042,5.88602 8.24042,14.91126 v 206.01058 c 0,13.34164 0,18.83526 -41.20212,18.83526 h -15.69604 v 12.16443 c 16.08844,-1.1772 55.72096,-1.1772 73.77141,-1.1772 18.05045,0 58.46777,0 74.55622,1.1772 v -12.16443 h -15.69605 c -41.20212,0 -41.20212,-5.49362 -41.20212,-18.83526 V 181.07234 c 0,-7.84804 0,-13.34165 7.06322,-14.91126 4.31641,-0.7848 14.91124,-0.7848 22.36687,-0.7848 58.86017,0 64.74618,12.94925 70.2398,76.12582 h 9.81003 z"
     id="path3"
     style="stroke-width:39.2401" />
  <path
     d="m 541.48714,405.52579 h -9.81003 c -9.81003,60.03737 -18.83525,88.68265 -85.93585,88.68265 h -51.79695 c -18.44285,0 -19.22766,-2.7468 -19.22766,-15.69604 V 374.13369 h 34.92371 c 38.06291,0 42.37932,12.55684 42.37932,45.91094 h 9.81003 v -103.5939 h -9.81003 c 0,33.35409 -4.31641,45.51853 -42.37932,45.51853 h -34.92371 v -93.78387 c 0,-12.94924 0.78481,-15.69605 19.22766,-15.69605 h 50.22735 c 60.03737,0 70.2398,21.58206 76.51822,76.12582 h 9.81003 L 519.51268,240.71731 H 299.76804 v 11.77203 h 9.02522 c 30.21489,0 30.99969,4.31641 30.99969,18.44285 v 204.8334 c 0,14.12644 -0.7848,18.44285 -30.99969,18.44285 h -9.02522 v 12.16444 h 225.23825 z"
     id="path4"
     style="stroke-width:39.2401" />
  <g
     transform="matrix(0.21946966,0,0,-0.21946966,553.20528,440.02086)"
     id="g8">
    <path
       d="m 967,288 h 36 C 1003,182.66667 986,106 952,58 918,10 875,-14 823,-14 781,-14 740.66667,1.6666667 702,33 663.33333,64.333333 628.66667,149.33333 598,288 L 512,676 214,0 H 25 l 428,922 c -22.66667,119.3333 -50,207.6667 -82,265 -32,57.3333 -71.66667,86 -119,86 -38,0 -71,-14.3333 -99,-43 -28,-28.6667 -44,-73.6667 -48,-135 H 69 c 2,98 21.666667,176.3333 59,235 37.33333,58.6667 84,88.3333 140,89 36,0 70,-14.6667 102,-44 32,-29.3333 60,-80 84,-152 24,-72 61,-220.6667 111,-446 l 71,-317 c 28.66667,-131.33333 58.66667,-219 90,-263 31.33333,-44 69.33333,-66.33333 114,-67 74.66667,0 117,52.66667 127,158 z"
       id="path10"
       style="fill:#000000" />
  </g>
  <path
     d="m 1106.6886,235.54666 c 0,-0.91414 -0.457,-1.3712 -0.9141,-2.28533 0,0 0,-0.45706 -0.4571,-0.45706 -0.457,-0.45706 -0.914,-1.3712 -1.3712,-1.82826 L 1002.9349,130.42167 c -0.4571,-0.45706 -0.9142,-0.91413 -1.8283,-1.37119 0,0 -0.4571,0 -0.4571,-0.45707 -0.457,0.45707 -0.91397,0 -1.82817,0 H 852.10344 c -13.25488,0 -24.22444,10.96957 -24.22444,24.22445 V 481.4477 c 0,13.25489 10.96956,24.22446 24.22444,24.22446 h 230.36076 c 13.2548,0 24.2244,-10.96957 24.2244,-24.22446 z m -28.7951,-6.85598 h -72.2162 v -71.75923 z m 11.8837,252.75702 c 0,4.11359 -3.1995,7.31305 -7.313,7.31305 H 852.10344 c -4.11357,0 -7.31304,-3.19946 -7.31304,-7.31305 V 152.81786 c 0,-4.11358 3.19947,-7.31304 7.31304,-7.31304 h 136.66249 v 91.8701 c 0,4.57065 3.6565,8.22717 8.2271,8.22717 h 92.32707 V 481.4477 Z m -38.8505,-88.21357 c 0,4.57065 -3.6565,8.22717 -8.2271,8.22717 H 890.49691 c -4.57063,0 -8.22716,-3.65652 -8.22716,-8.22717 0,-4.57065 3.65653,-8.22717 8.22716,-8.22717 h 152.20269 c 4.5706,-0.45706 8.2271,3.65652 8.2271,8.22717 z m 0,50.73424 c 0,4.57064 -3.6565,8.22717 -8.2271,8.22717 H 890.49691 c -4.57063,0 -8.22716,-3.65653 -8.22716,-8.22717 0,-4.57066 3.65653,-8.22718 8.22716,-8.22718 h 152.20269 c 4.5706,-0.45706 8.2271,3.19946 8.2271,8.22718 z m 0,-101.0114 c 0,4.57065 -3.6565,8.22717 -8.2271,8.22717 H 890.49691 c -4.57063,0 -8.22716,-3.65652 -8.22716,-8.22717 0,-4.57066 3.65653,-8.22718 8.22716,-8.22718 h 152.20269 c 4.5706,0 8.2271,3.65652 8.2271,8.22718 z M 890.49691,284.45262 h 152.20269 c 4.5706,0 8.2271,3.65652 8.2271,8.22719 0,4.57064 -3.6565,8.22716 -8.2271,8.22716 H 890.49691 c -4.57063,0 -8.22716,-3.65652 -8.22716,-8.22716 -0.45707,-4.1136 3.19945,-8.22719 8.22716,-8.22719 z"
     id="path1"
     style="stroke-width:4.57065"
     sodipodi:nodetypes="sccccccsssssssscccccssssscsscccssssscsssssscssssssssssssscs" />
</svg>
